<?xml version="1.0" encoding="utf-8"?>
<!-- Generator: Adobe Illustrator 28.2.0, SVG Export Plug-In . SVG Version: 6.00 Build 0)  -->
<svg version="1.1" id="Layer_1" xmlns="http://www.w3.org/2000/svg" xmlns:xlink="http://www.w3.org/1999/xlink" x="0px" y="0px"
	 viewBox="0 0 369.08 352.26" enable-background="new 0 0 369.08 352.26" xml:space="preserve">
<rect fill="#FFFFFF" width="369.08" height="352.26"/>
<polygon fill="#EE2435" points="103.34,139.55 61.13,139.55 61.13,103.37 103.34,103.37 103.33,103.35 103.33,61.15 139.51,61.15 
	139.51,103.35 139.5,103.37 181.71,103.37 181.71,139.55 139.5,139.55 139.51,139.53 139.51,181.74 103.33,181.74 103.33,139.53 "/>
<path fill="#EE2435" d="M237.67,120.8c0-28.11,22.79-50.89,50.89-50.89c6.26,0,12.25,1.13,17.79,3.2
	c-10.41-8.24-23.56-13.16-37.87-13.16c-33.73,0-61.07,27.35-61.07,61.07c0,33.73,27.34,61.07,61.07,61.07
	c14.78,0,28.34-5.25,38.91-13.99c-5.83,2.32-12.18,3.6-18.82,3.6C260.46,171.69,237.67,148.9,237.67,120.8"/>
<path d="M277.93,292.31c6.3,0,12.01-1.11,17.14-3.32c5.12-2.21,9.42-5.44,12.88-9.66l-10.8-9.97c-4.92,5.75-11.01,8.62-18.28,8.62
	c-4.5,0-8.52-0.99-12.05-2.96c-3.53-1.97-6.28-4.73-8.26-8.26c-1.97-3.53-2.96-7.55-2.96-12.05c0-4.5,0.99-8.52,2.96-12.05
	c1.97-3.53,4.73-6.28,8.26-8.26c3.53-1.97,7.55-2.96,12.05-2.96c7.27,0,13.36,2.84,18.28,8.52l10.8-9.97
	c-3.46-4.16-7.74-7.34-12.83-9.56c-5.09-2.21-10.79-3.32-17.09-3.32c-7.48,0-14.22,1.61-20.2,4.83c-5.99,3.22-10.7,7.69-14.13,13.4
	c-3.43,5.71-5.14,12.17-5.14,19.37c0,7.2,1.72,13.66,5.14,19.37c3.43,5.71,8.14,10.18,14.13,13.4
	C263.81,290.7,270.51,292.31,277.93,292.31 M210.72,244.74c0,4.02-1.32,7.13-3.95,9.35c-2.63,2.22-6.48,3.32-11.53,3.32h-13.71
	v-25.35h13.71c5.06,0,8.9,1.09,11.53,3.27C209.4,237.52,210.72,240.65,210.72,244.74 M229.1,291.07l-16.31-23.37
	c4.78-2.08,8.47-5.07,11.06-8.99c2.6-3.91,3.89-8.57,3.89-13.97c0-5.4-1.28-10.08-3.84-14.03c-2.56-3.95-6.22-6.99-10.96-9.14
	s-10.34-3.22-16.78-3.22H164.7v72.72h16.83v-20.26h14.65h0.83l14.02,20.26H229.1z M150.16,231.85v-13.5H95.21v72.72h16.83v-26.49
	h33.66v-13.5h-33.66v-19.22H150.16z M61.13,291.07h16.83v-72.72H61.13V291.07z"/>
</svg>
